<svg xmlns="http://www.w3.org/2000/svg" width="198.78" height="89.148" viewBox="0 0 52.594 23.587" xmlns:v="https://vecta.io/nano"><path d="M4.364 6.953v7.473c0 1.651-1.218 2.942-2.774 2.942h-.422c-.092 0-.168-.076-.168-.168v-.845c0-.091.076-.167.168-.167h.422c.878 0 1.593-.791 1.593-1.763V6.953c0-.091.074-.167.167-.167h.846c.092 0 .168.076.168.167m4.519 8.795c-1.178 0-2.137-1.174-2.137-2.617 0-1.437.959-2.606 2.137-2.606s2.135 1.169 2.135 2.606c0 1.443-.958 2.617-2.135 2.617m2.413-5.206c-.621-.755-1.477-1.173-2.413-1.173-1.83 0-3.317 1.694-3.317 3.773 0 .96.329 1.913.903 2.613.62.758 1.476 1.174 2.414 1.174 1.826 0 3.314-1.698 3.314-3.787 0-.952-.328-1.902-.901-2.6m4.188 5.22h-.04l-.703-.01V10.66a1.95 1.95 0 0 0 .205.008h.496a2.55 2.55 0 0 1 2.545 2.548c0 1.379-1.147 2.545-2.504 2.545m-.041-6.284h-.496c-.205 0-.205-.059-.205-.098V7.064c0-.092-.076-.168-.168-.168h-.843c-.092 0-.168.076-.168.168v9.697c0 .091.076.167.168.167h1.713c2.06 0 3.737-1.666 3.737-3.712 0-2.027-1.713-3.739-3.737-3.739" fill="#3c91c2"/><path d="M23.881 7.065v.82c0 .092-.076.168-.167.168h-.423c-.723 0-1.353.548-1.542 1.311l.168-.007h1.506c.092 0 .168.076.168.168v.845c0 .091-.076.167-.168.167h-1.506c-.22 0-.22.052-.22.11v8.795c0 .092-.073.168-.167.168h-.845c-.091 0-.167-.076-.167-.168V9.837c0-1.621 1.244-2.941 2.773-2.941h.423c.091 0 .167.076.167.168m2.628-3.014v12.879c0 .092-.076.168-.167.168h-.845c-.092 0-.167-.076-.167-.168V4.05c0-.092.074-.168.167-.168h.845c.091 0 .167.076.167.168m4.464 11.698c-1.177 0-2.136-1.174-2.136-2.617 0-1.437.959-2.606 2.136-2.606s2.136 1.169 2.136 2.606c0 1.443-.959 2.617-2.136 2.617m2.413-5.206c-.619-.755-1.477-1.173-2.413-1.173-1.827 0-3.314 1.694-3.314 3.773 0 .96.328 1.913.901 2.613.619.758 1.477 1.174 2.413 1.174 1.829 0 3.314-1.698 3.314-3.787 0-.952-.328-1.902-.901-2.6M21.087 22.587c-.157 0-.306-.073-.401-.198l-1.503-1.977a.5.5 0 0 1 .097-.704c.22-.168.536-.124.704.097l1.104 1.451 1.104-1.451a.502.502 0 1 1 .799.608l-1.503 1.977c-.095.125-.244.198-.4.198m6.347-18.606a.5.5 0 0 1-.4-.197l-1.104-1.452-1.104 1.452c-.168.22-.484.263-.704.095s-.265-.484-.097-.704l1.503-1.977c.095-.124.244-.198.401-.198s.305.074.4.198l1.503 1.977c.168.22.125.536-.095.704-.092.069-.198.102-.305.102M49.284 6.85c-.006.022-.021.04-.039.052-2.797 1.589-4.762 3.741-5.837 6.394L42.11 16.79c-.012.032-.043.054-.079.054h-.736c-.036 0-.067-.023-.08-.058l-1.392-4.505-1.39 4.505c-.011.034-.043.058-.08.058h-.734c-.036 0-.067-.022-.079-.054l-2.69-7.224c-.011-.026-.007-.055.01-.076s.04-.037.069-.037h.904c.036 0 .065.022.079.055l2.035 5.46 1.4-4.622c.01-.036.044-.061.08-.061h.759c.036 0 .067.023.08.058l1.433 4.626.668-1.789c.004-.011.011-.019.017-.028 1.141-2.977 3.281-5.373 6.364-7.123.04-.023.091-.011.113.029l.413.728c.012.021.015.044.01.063m.744 1.222a.5.5 0 0 1-.215-.048c-.251-.119-.357-.419-.238-.67l.78-1.647-1.796-.313a.5.5 0 0 1-.409-.582c.047-.273.307-.456.582-.409l2.447.426c.154.028.288.125.36.265s.074.305.008.446l-1.064 2.243c-.087.182-.266.288-.455.288" fill="#86cf4c"/></svg>
