<?xml version="1.0" encoding="UTF-8" standalone="no"?>
<!-- Created with Inkscape (http://www.inkscape.org/) -->

<svg
   width="52.594002mm"
   height="23.587mm"
   viewBox="0 0 52.594002 23.586999"
   version="1.1"
   id="svg1"
   inkscape:version="1.3 (0e150ed6c4, 2023-07-21)"
   sodipodi:docname="jobflow_logo.svg"
   xmlns:inkscape="http://www.inkscape.org/namespaces/inkscape"
   xmlns:sodipodi="http://sodipodi.sourceforge.net/DTD/sodipodi-0.dtd"
   xmlns="http://www.w3.org/2000/svg"
   xmlns:svg="http://www.w3.org/2000/svg">
  <sodipodi:namedview
     id="namedview1"
     pagecolor="#ffffff"
     bordercolor="#000000"
     borderopacity="0.25"
     inkscape:showpageshadow="2"
     inkscape:pageopacity="0.0"
     inkscape:pagecheckerboard="0"
     inkscape:deskcolor="#d1d1d1"
     inkscape:document-units="mm"
     inkscape:zoom="0.69219276"
     inkscape:cx="72.956556"
     inkscape:cy="189.97598"
     inkscape:window-width="1920"
     inkscape:window-height="991"
     inkscape:window-x="-9"
     inkscape:window-y="-9"
     inkscape:window-maximized="1"
     inkscape:current-layer="layer1" />
  <defs
     id="defs1" />
  <g
     inkscape:label="Layer 1"
     inkscape:groupmode="layer"
     id="layer1"
     transform="translate(-85.460414,-98.425021)">
    <g
       id="g1"
       transform="translate(0.99998027,1.0000254)">
      <path
         fill-rule="nonzero"
         fill="#3c91c2"
         fill-opacity="1"
         d="m 88.824207,104.37813 v 7.4731 c 0,1.65089 -1.218188,2.94211 -2.77399,2.94211 h -0.421679 c -0.09233,0 -0.168124,-0.0758 -0.168124,-0.16812 v -0.84474 c 0,-0.0909 0.07579,-0.16674 0.168124,-0.16674 h 0.421679 c 0.877809,0 1.59301,-0.791 1.59301,-1.76251 v -7.4731 c 0,-0.0909 0.07442,-0.16674 0.166744,-0.16674 h 0.846116 c 0.09233,0 0.16812,0.0758 0.16812,0.16674"
         id="path187"
         style="stroke-width:0.352778" />
      <path
         fill-rule="nonzero"
         fill="#3c91c2"
         fill-opacity="1"
         d="m 93.342793,113.17277 c -1.178222,0 -2.137336,-1.17409 -2.137336,-2.6169 0,-1.43729 0.959114,-2.60587 2.137336,-2.60587 1.176845,0 2.13458,1.16858 2.13458,2.60587 0,1.44281 -0.957735,2.6169 -2.13458,2.6169 m 2.412947,-5.20623 c -0.621496,-0.75517 -1.477257,-1.17271 -2.412947,-1.17271 -1.830035,0 -3.316937,1.69361 -3.316937,3.77307 0,0.96049 0.32935,1.91271 0.902614,2.61276 0.62012,0.75792 1.475881,1.17409 2.414323,1.17409 1.8259,0 3.314181,-1.69775 3.314181,-3.78685 0,-0.95223 -0.32797,-1.9017 -0.901234,-2.60036"
         id="path188"
         style="stroke-width:0.352778" />
      <path
         fill-rule="nonzero"
         fill="#3c91c2"
         fill-opacity="1"
         d="m 99.943596,113.18655 h -0.03996 l -0.702801,-0.01 v -5.09184 c 0.06477,0.007 0.135047,0.008 0.205328,0.008 h 0.496093 c 1.404224,0 2.545234,1.14239 2.545234,2.54799 0,1.37942 -1.14652,2.54524 -2.503892,2.54524 m -0.04134,-6.28385 h -0.496093 c -0.205328,0 -0.205328,-0.0593 -0.205328,-0.0978 v -2.31511 c 0,-0.0923 -0.07579,-0.16812 -0.168119,-0.16812 h -0.843361 c -0.09233,0 -0.16812,0.0758 -0.16812,0.16812 v 9.69726 c 0,0.0909 0.07579,0.16674 0.16812,0.16674 h 1.712901 c 2.060162,0 3.737232,-1.66605 3.737232,-3.71244 0,-2.02709 -1.7129,-3.73861 -3.737232,-3.73861"
         id="path189"
         style="stroke-width:0.352778" />
      <path
         fill-rule="nonzero"
         fill="#86cf4c"
         fill-opacity="1"
         d="m 108.34136,104.48975 v 0.81993 c 0,0.0923 -0.0758,0.16812 -0.16674,0.16812 h -0.42306 c -0.72347,0 -1.35323,0.54846 -1.54202,1.31051 0.0551,-0.004 0.11024,-0.007 0.16812,-0.007 h 1.50619 c 0.0923,0 0.16812,0.0758 0.16812,0.16812 v 0.84474 c 0,0.0909 -0.0758,0.16674 -0.16812,0.16674 h -1.50619 c -0.22049,0 -0.22049,0.0524 -0.22049,0.11024 v 8.79464 c 0,0.0923 -0.073,0.16812 -0.16674,0.16812 h -0.84474 c -0.091,0 -0.16674,-0.0758 -0.16674,-0.16812 v -9.60355 c 0,-1.62057 1.24437,-2.94073 2.77261,-2.94073 h 0.42306 c 0.0909,0 0.16674,0.0758 0.16674,0.16812"
         id="path190"
         style="stroke-width:0.352778" />
      <path
         fill-rule="nonzero"
         fill="#86cf4c"
         fill-opacity="1"
         d="m 110.96928,101.4746 v 12.87915 c 0,0.0923 -0.0758,0.16812 -0.16674,0.16812 h -0.84474 c -0.0923,0 -0.16674,-0.0758 -0.16674,-0.16812 V 101.4746 c 0,-0.0923 0.0744,-0.16812 0.16674,-0.16812 h 0.84474 c 0.091,0 0.16674,0.0758 0.16674,0.16812"
         id="path191"
         style="stroke-width:0.352778" />
      <path
         fill-rule="nonzero"
         fill="#86cf4c"
         fill-opacity="1"
         d="m 115.43275,113.17277 c -1.17685,0 -2.13596,-1.17409 -2.13596,-2.6169 0,-1.43729 0.95911,-2.60587 2.13596,-2.60587 1.17684,0 2.13596,1.16858 2.13596,2.60587 0,1.44281 -0.95912,2.6169 -2.13596,2.6169 m 2.41294,-5.20623 c -0.61874,-0.75517 -1.47726,-1.17271 -2.41294,-1.17271 -1.82728,0 -3.31419,1.69361 -3.31419,3.77307 0,0.96049 0.32798,1.91271 0.90124,2.61276 0.61874,0.75792 1.47726,1.17409 2.41295,1.17409 1.82865,0 3.31418,-1.69775 3.31418,-3.78685 0,-0.95223 -0.32798,-1.9017 -0.90124,-2.60036"
         id="path192"
         style="stroke-width:0.352778" />
      <path
         fill-rule="nonzero"
         fill="#86cf4c"
         fill-opacity="1"
         d="m 105.5467,120.01197 c -0.1571,0 -0.30592,-0.073 -0.40101,-0.19844 l -1.50344,-1.97748 c -0.16812,-0.22049 -0.1254,-0.53606 0.0965,-0.70418 0.22049,-0.16812 0.53606,-0.12402 0.70418,0.0965 l 1.10381,1.45108 1.10381,-1.45108 c 0.16674,-0.22048 0.48231,-0.26458 0.7028,-0.0965 0.22186,0.16812 0.26458,0.48369 0.0965,0.70418 l -1.50344,1.97748 c -0.0951,0.1254 -0.24391,0.19844 -0.39963,0.19844"
         id="path193"
         style="stroke-width:0.352778" />
      <path
         fill-rule="nonzero"
         fill="#86cf4c"
         fill-opacity="1"
         d="m 111.89532,101.40708 c -0.15158,0 -0.30179,-0.0675 -0.39963,-0.19706 l -1.10381,-1.452454 -1.10381,1.452454 c -0.16812,0.22048 -0.48369,0.2632 -0.70417,0.0951 -0.22049,-0.16812 -0.26459,-0.48369 -0.0965,-0.70418 l 1.50344,-1.977482 c 0.0951,-0.124022 0.24392,-0.198437 0.40101,-0.198437 0.1571,0 0.30455,0.07442 0.39963,0.198437 l 1.50344,1.977482 c 0.16812,0.22049 0.1254,0.53606 -0.0951,0.70418 -0.0923,0.0689 -0.19844,0.10198 -0.30455,0.10198"
         id="path194"
         style="stroke-width:0.352778" />
      <path
         fill-rule="nonzero"
         fill="#86cf4c"
         fill-opacity="1"
         d="m 133.74412,104.27477 c -0.006,0.022 -0.0207,0.04 -0.0386,0.0524 -2.79742,1.58888 -4.7625,3.74137 -5.83737,6.3941 -0.001,0.006 -0.001,0.01 -0.003,0.0152 l -1.29536,3.47817 c -0.0124,0.0317 -0.0427,0.0537 -0.0785,0.0537 h -0.73588 c -0.0358,0 -0.0675,-0.0234 -0.0799,-0.0579 l -1.39182,-4.50481 -1.39044,4.50481 c -0.011,0.0344 -0.0427,0.0579 -0.0799,0.0579 h -0.73449 c -0.0358,0 -0.0675,-0.0221 -0.0785,-0.0537 l -2.68993,-7.22368 c -0.011,-0.0262 -0.007,-0.0551 0.01,-0.0758 0.0152,-0.0234 0.04,-0.0372 0.0689,-0.0372 h 0.90399 c 0.0358,0 0.0648,0.0221 0.0785,0.0551 l 2.03536,5.45979 1.40009,-4.62194 c 0.01,-0.0358 0.0441,-0.0606 0.0799,-0.0606 h 0.7593 c 0.0358,0 0.0675,0.0234 0.0799,0.0579 l 1.43316,4.62608 0.66835,-1.7887 c 0.004,-0.011 0.011,-0.0193 0.0166,-0.0276 1.14101,-2.97656 3.28111,-5.37297 6.36378,-7.12308 0.04,-0.0234 0.0909,-0.011 0.11299,0.0289 l 0.41342,0.72761 c 0.0124,0.0207 0.0152,0.0441 0.01,0.0634"
         id="path195"
         style="stroke-width:0.352778" />
      <path
         fill-rule="nonzero"
         fill="#86cf4c"
         fill-opacity="1"
         d="m 134.48826,105.49572 c -0.0717,0 -0.1447,-0.0152 -0.21498,-0.0482 -0.2508,-0.11851 -0.35691,-0.41892 -0.2384,-0.66972 l 0.77997,-1.64676 -1.79558,-0.31281 c -0.27423,-0.0482 -0.45751,-0.30731 -0.40928,-0.58153 0.0468,-0.27286 0.3073,-0.45614 0.58153,-0.40928 l 2.4474,0.42581 c 0.15434,0.0276 0.28801,0.1254 0.35967,0.26459 0.0717,0.13918 0.0744,0.30454 0.008,0.44648 l -1.06384,2.24345 c -0.0868,0.1819 -0.26596,0.28801 -0.45475,0.28801"
         id="path196"
         style="stroke-width:0.352778" />
    </g>
  </g>
</svg>
